<svg width="692" height="101" viewBox="0 0 692 101" fill="none" xmlns="http://www.w3.org/2000/svg">
<g clip-path="url(#clip0_4_149)" filter="url(#filter0_d_4_149)">
<path d="M119.425 19.0643C119.7 15.8374 120.376 13.4676 121.452 11.9546C122.956 9.96451 126.014 8.82823 130.625 8.54572V7.34979H95.0261L74.7141 58.8124L54.5382 7.34979H4V8.4751H4.26276C5.97067 8.4751 15.7302 11.2483 16.5654 11.5732C20.2862 13.0375 25.1143 14.9209 27.4603 18.3345C29.0556 20.6321 29.3888 23.5796 29.3372 26.3811C29.1917 34.9315 29.2433 43.4913 29.2433 52.0559C29.2962 56.4867 29.1161 60.9171 28.7037 65.3288C28.1063 70.3856 26.9552 74.5494 25.2504 77.8202C22.2428 83.3384 10.9067 86.6625 4 87.7407V88.9367H49.0438V87.7407C46.1441 87.3829 44.039 86.945 42.7283 86.4271C39.7535 85.2312 37.3121 83.0339 35.404 79.8354C32.423 74.9763 30.9137 66.4494 30.8762 54.2547V12.6091L63.0403 93L95.2419 10.8293V67.9561C95.2419 72.9784 95.1825 76.0671 95.0636 77.2222C94.829 80.449 94.1549 82.8032 93.0413 84.2848C91.5305 86.3157 88.4728 87.4708 83.8683 87.7502V88.9461H130.625V87.7502C128.601 87.6489 126.598 87.2866 124.666 86.6719C122.085 85.7585 120.477 83.7465 119.842 80.6358C119.445 78.4385 119.247 74.2151 119.247 67.9655V28.3304C119.247 23.2547 119.306 20.166 119.425 19.0643Z" fill="white"/>
<path d="M227.535 87.1051C224.795 86.1634 222.333 84.0917 220.149 80.89C218.754 79.5748 214.585 70.7858 207.64 54.5231L191.917 16.437C189.928 11.5748 187.816 6.09579 185.583 0C182.785 3.37146 179.781 6.56519 176.588 9.56273C172.209 13.546 168.299 16.3711 164.858 18.0378C166.794 19.9063 168.406 22.0846 169.63 24.4836L157.299 57.0609C154.084 65.536 150.213 72.4887 145.686 77.9191C140.722 83.6978 135.561 86.9654 130.202 87.7219V88.9178H167.908V87.7219C164.845 87.6286 161.938 86.3417 159.805 84.1341C157.143 81.3091 155.813 77.4247 155.816 72.4809C155.816 68.1774 170.587 25.8679 170.587 25.8679L186.193 64.0058C189.609 72.0948 191.317 77.7338 191.317 80.923C191.317 85.2265 188.417 87.4975 182.618 87.736V88.932H231.884V87.736C230.416 87.6839 228.958 87.4723 227.535 87.1051Z" fill="white"/>
<path d="M295.757 37.1962H294.566C291.979 29.4902 288.583 23.0287 284.379 17.8118C278.702 10.8403 272.369 7.35293 265.381 7.34979C261.571 7.34979 258.513 8.3668 256.208 10.4008C253.665 12.5981 252.395 15.5063 252.398 19.1255C252.398 22.9926 253.806 26.0405 256.621 28.2691C259.718 30.7018 264.76 33.2522 271.748 35.9203L283.126 40.2849C289.279 42.6768 293.945 45.4657 297.123 48.6517C299.075 50.5835 300.615 52.8938 301.649 55.4419C302.684 57.9901 303.19 60.7228 303.138 63.4737C303.122 66.922 302.397 70.3298 301.008 73.4838C299.625 76.7325 297.634 79.6847 295.143 82.1801C289.512 87.7611 282.207 90.5517 273.226 90.5517C266.432 90.5517 257.616 89.3557 246.777 86.9639C243.802 86.2859 241.758 85.9468 240.644 85.9468C238.455 85.9468 237.144 86.9435 236.712 88.9367H235.464L234.273 51.1613H235.464C238.201 60.2485 243.125 68.8554 250.235 76.9821C254.204 81.5618 257.856 84.7101 261.191 86.4271C264.571 88.1286 268.309 88.9894 272.091 88.9367C276.06 88.9367 279.257 87.86 281.681 85.7067C283.011 84.5803 284.071 83.168 284.782 81.5745C285.494 79.981 285.839 78.2473 285.791 76.5018C285.791 72.4809 284.184 69.1552 280.968 66.5248C277.99 64.0921 273.859 61.8603 268.576 59.8294L256.668 55.1681C249.32 52.296 243.721 49.0284 239.87 45.3653C236.295 41.9752 234.507 37.6718 234.507 32.4549C234.507 25.4394 237.229 19.3624 242.671 14.224C248.743 8.52689 256.585 5.67831 266.197 5.67831C269.759 5.70953 273.309 6.08957 276.797 6.81303C277.71 6.97312 280.369 7.55068 284.773 8.54572C286.586 9.01839 288.443 9.29929 290.315 9.38381C291.863 9.38381 292.801 8.46725 293.13 6.63412H294.383L295.757 37.1962Z" fill="white"/>
<path d="M371.886 37.1962H370.694C368.111 29.5027 364.715 23.0475 360.508 17.8307C354.83 10.8591 348.498 7.37176 341.51 7.36862C337.693 7.36862 334.636 8.38563 332.337 10.4197C329.794 12.6169 328.522 15.5251 328.522 19.1443C328.522 23.0114 329.93 26.0593 332.745 28.288C335.848 30.7206 340.892 33.271 347.877 35.9391L359.25 40.3038C365.406 42.6956 370.072 45.4846 373.247 48.6706C375.2 50.6021 376.741 52.9122 377.776 55.4604C378.811 58.0085 379.318 60.7414 379.267 63.4926C379.253 66.9396 378.533 70.3468 377.151 73.5026C375.766 76.7504 373.776 79.7023 371.286 82.199C365.655 87.78 358.348 90.5705 349.364 90.5705C342.573 90.5705 333.758 89.3745 322.92 86.9827C319.939 86.3047 317.893 85.9657 316.783 85.9657C314.593 85.9657 313.284 86.9623 312.855 88.9555H311.602L310.411 51.1801H311.602C314.343 60.2673 319.266 68.8742 326.373 77.0009C330.343 81.5806 333.996 84.7289 337.334 86.4459C340.714 88.1475 344.452 89.0082 348.233 88.9555C352.203 88.9555 355.4 87.8789 357.824 85.7256C359.154 84.5991 360.213 83.1868 360.925 81.5933C361.636 79.9999 361.981 78.2661 361.934 76.5207C361.934 72.4997 360.325 69.174 357.106 66.5436C354.131 64.1109 350.002 61.8792 344.719 59.8483L332.806 55.187C325.468 52.296 319.873 49.0221 316.022 45.3653C312.453 41.9752 310.667 37.6718 310.664 32.4549C310.664 25.4394 313.384 19.3624 318.824 14.224C324.898 8.52689 332.74 5.67831 342.35 5.67831C345.913 5.70973 349.464 6.08977 352.954 6.81303C353.867 6.97312 356.526 7.55068 360.93 8.54572C362.742 9.01803 364.597 9.29893 366.467 9.38381C368.015 9.38381 368.954 8.46725 369.282 6.63412H370.535L371.886 37.1962Z" fill="white"/>
<path d="M439.719 88.9367L414.345 47.6347V67.9561C414.345 74.212 414.543 78.4354 414.941 80.6264C415.566 83.7339 417.155 85.746 419.708 86.6625C421.66 87.2728 423.681 87.635 425.723 87.7407V88.9367H378.966V87.7407C383.574 87.4614 386.632 86.3063 388.139 84.2754C389.253 82.8032 389.929 80.449 390.166 77.2128C390.285 76.0545 390.345 72.9658 390.345 67.9467V28.3304C390.345 22.1153 390.146 17.8919 389.749 15.6601C389.123 12.5526 387.534 10.5405 384.982 9.62394C383.029 9.01641 381.008 8.65424 378.966 8.54572V7.34979H425.723V8.54572C421.115 8.82195 418.058 9.95824 416.55 11.9546C415.436 13.4676 414.761 15.8374 414.523 19.0643C414.407 20.1817 414.348 23.2704 414.345 28.3304V46.7401C417.645 43.3124 421.868 38.5695 427.013 32.5114C430.363 28.6066 432.733 25.2401 434.122 22.4119C435.708 19.2228 436.501 16.1749 436.501 13.2682C436.501 11.071 435.747 9.50152 434.239 8.55985V7.34979H467.417V8.54572C460.704 9.9394 453.755 12.9685 446.57 17.6329C439.816 22.0965 434.237 26.6777 429.833 31.3767L447.283 57.6165C453.082 66.2674 456.736 71.6663 458.244 73.8133C464.187 82.6023 470.912 87.2448 478.419 87.7407V88.9367H439.719Z" fill="white"/>
<path d="M488.381 67.9561V28.3304C488.381 22.1153 488.182 17.8919 487.785 15.6601C487.159 12.5526 485.57 10.5405 483.018 9.62394C481.065 9.01598 479.044 8.6538 477.003 8.54572V7.34979H523.759V8.54572C519.151 8.82195 516.094 9.95824 514.586 11.9546C513.516 13.4676 512.842 15.8374 512.564 19.0643C512.442 20.2225 512.382 23.3112 512.385 28.3304V67.9561C512.385 74.1712 512.584 78.3946 512.981 80.6264C513.607 83.7339 515.194 85.746 517.744 86.6625C519.696 87.2723 521.717 87.6346 523.759 87.7407V88.9367H477.003V87.7407C481.61 87.4614 484.668 86.3063 486.175 84.2754C487.286 82.8032 487.962 80.449 488.202 77.2128C488.321 76.0608 488.381 72.9753 488.381 67.9561Z" fill="white"/>
<path d="M609.685 52.296L602.417 88.9367H527.907V87.7407C532.514 87.4614 535.572 86.3063 537.08 84.2754C538.187 82.8032 538.861 80.449 539.102 77.2128C539.224 76.0953 539.283 73.0066 539.28 67.9467V28.3304C539.28 22.0713 539.082 17.8479 538.684 15.6601C538.059 12.5526 536.471 10.5405 533.922 9.62394C531.969 9.01641 529.948 8.65424 527.907 8.54572V7.34979H574.663V8.54572C570.056 8.82195 566.998 9.95824 565.49 11.9546C564.417 13.4676 563.742 15.8374 563.463 19.0643C563.347 20.2225 563.288 23.3112 563.285 28.3304V73.6344C563.285 78.776 563.682 82.2288 564.477 83.9929C565.55 86.3471 568.151 87.5226 572.28 87.5194C580.775 87.5194 588.796 83.1972 596.34 74.5526C601.427 68.733 605.457 61.3204 608.432 52.3149L609.685 52.296Z" fill="white"/>
<path d="M686.752 52.296C683.774 61.3016 679.744 68.7142 674.66 74.5337C667.116 83.1783 659.094 87.5006 650.595 87.5006C646.466 87.5006 643.865 86.3251 642.792 83.974C641.997 82.2225 641.602 78.7697 641.605 73.6156V42.931H641.647V30.4209C641.647 26.6542 640.962 22.12 643.055 18.8006C644.983 15.7166 648.995 13.8992 652.2 12.4725C655.677 10.8983 659.326 9.7354 663.071 9.00714C663.353 8.95535 666.473 8.5363 666.872 8.5363H666.909V7.34979H606.222V8.54572C608.264 8.6538 610.284 9.01598 612.237 9.62394C614.78 10.5374 616.369 12.5494 617.004 15.6601C617.398 17.8573 617.597 22.0808 617.6 28.3304V67.9561C617.6 73.0192 617.541 76.1079 617.422 77.2222C617.181 80.449 616.505 82.8032 615.395 84.2848C613.884 86.3157 610.826 87.4708 606.222 87.7502V88.9461H680.737L688 52.3054L686.752 52.296Z" fill="white"/>
</g>
<defs>
<filter id="filter0_d_4_149" x="0" y="0" width="692" height="101" filterUnits="userSpaceOnUse" color-interpolation-filters="sRGB">
<feFlood flood-opacity="0" result="BackgroundImageFix"/>
<feColorMatrix in="SourceAlpha" type="matrix" values="0 0 0 0 0 0 0 0 0 0 0 0 0 0 0 0 0 0 127 0" result="hardAlpha"/>
<feOffset dy="4"/>
<feGaussianBlur stdDeviation="2"/>
<feComposite in2="hardAlpha" operator="out"/>
<feColorMatrix type="matrix" values="0 0 0 0 0 0 0 0 0 0 0 0 0 0 0 0 0 0 0.25 0"/>
<feBlend mode="normal" in2="BackgroundImageFix" result="effect1_dropShadow_4_149"/>
<feBlend mode="normal" in="SourceGraphic" in2="effect1_dropShadow_4_149" result="shape"/>
</filter>
<clipPath id="clip0_4_149">
<rect width="684" height="93" fill="white" transform="translate(4)"/>
</clipPath>
</defs>
</svg>
